<?xml version="1.0" standalone="no"?>
<!DOCTYPE svg PUBLIC "-//W3C//DTD SVG 20010904//EN"
 "http://www.w3.org/TR/2001/REC-SVG-20010904/DTD/svg10.dtd">
<svg version="1.0" xmlns="http://www.w3.org/2000/svg"
 width="2048.000000pt" height="2048.000000pt" viewBox="0 0 2048.000000 2048.000000"
 preserveAspectRatio="xMidYMid meet">
<metadata>
Created by potrace 1.14, written by Peter Selinger 2001-2017
</metadata>
<g transform="translate(0.000000,2048.000000) scale(0.100000,-0.100000)"
fill="#000000" stroke="none">
<path d="M9305 17670 c-7 -14 -18 -43 -25 -65 -7 -22 -15 -44 -19 -50 -3 -5
-6 -14 -8 -20 -1 -5 -11 -35 -23 -65 -11 -30 -30 -82 -41 -115 -11 -33 -24
-69 -29 -80 -9 -19 -74 -195 -198 -535 -33 -91 -83 -226 -110 -300 -27 -74
-77 -211 -111 -305 -34 -93 -68 -186 -76 -205 -8 -19 -67 -179 -131 -355 -165
-455 -235 -646 -249 -680 -7 -16 -29 -77 -50 -135 -20 -58 -41 -116 -47 -130
-14 -36 -257 -695 -277 -755 -10 -27 -40 -111 -68 -185 -28 -74 -117 -315
-197 -535 -81 -220 -149 -407 -153 -415 -3 -8 -7 -19 -9 -25 -1 -5 -22 -64
-47 -130 -25 -66 -72 -195 -106 -286 -33 -92 -67 -184 -75 -205 -14 -38 -135
-365 -201 -549 -18 -49 -81 -220 -140 -380 -59 -159 -124 -337 -145 -395 -20
-58 -76 -208 -123 -335 -95 -258 -482 -1311 -533 -1450 -17 -49 -62 -171 -99
-270 -36 -99 -86 -236 -111 -305 -25 -69 -49 -134 -54 -145 -5 -11 -14 -38
-21 -60 -7 -22 -16 -44 -20 -50 -4 -5 -11 -26 -17 -45 -9 -31 -273 -753 -289
-790 -3 -8 -7 -17 -7 -20 -1 -3 -7 -18 -13 -35 -10 -25 -332 -904 -510 -1390
-30 -82 -63 -172 -74 -200 -10 -27 -48 -131 -84 -230 -37 -99 -77 -209 -91
-245 -49 -132 -285 -775 -289 -790 -2 -8 -25 -69 -50 -135 -25 -66 -52 -138
-59 -160 -12 -34 -88 -241 -233 -635 -20 -52 -52 -142 -73 -200 -21 -58 -68
-185 -104 -283 -36 -98 -66 -183 -66 -188 0 -11 1890 -13 1891 -1 2 18 11 47
69 207 34 94 154 431 266 750 113 319 208 587 211 595 3 8 7 20 9 25 2 6 78
219 169 475 147 412 556 1561 670 1885 175 496 389 1099 405 1140 10 28 34 95
54 150 19 55 70 201 114 325 44 124 94 263 110 310 109 312 304 858 312 875 5
11 18 47 28 80 11 33 78 224 150 425 71 201 182 511 245 690 64 179 125 352
137 385 12 33 59 166 105 295 45 129 122 345 170 480 93 260 100 280 193 545
33 94 106 298 162 455 56 157 116 328 135 380 18 52 86 244 151 425 64 182
136 382 158 447 23 64 127 357 231 652 l190 537 59 -3 59 -3 33 -95 c19 -52
41 -113 48 -135 71 -198 109 -304 116 -325 6 -20 135 -384 301 -847 40 -113
85 -241 121 -343 16 -47 35 -101 43 -120 7 -19 41 -111 73 -205 33 -93 84
-235 112 -315 29 -80 53 -149 54 -155 2 -5 6 -17 9 -25 6 -15 212 -593 327
-920 32 -91 77 -217 100 -280 23 -63 45 -126 50 -140 4 -14 31 -90 60 -170 28
-80 58 -165 66 -190 9 -25 24 -67 34 -95 11 -27 38 -104 61 -170 22 -66 45
-129 50 -140 5 -11 36 -96 68 -190 56 -160 88 -250 212 -597 58 -165 104 -295
149 -423 17 -49 41 -119 55 -155 24 -65 151 -423 218 -615 20 -55 57 -158 82
-230 81 -226 156 -437 190 -535 18 -52 52 -147 75 -210 23 -63 61 -171 85
-240 24 -69 63 -181 88 -250 24 -69 77 -217 117 -330 40 -113 78 -219 86 -237
8 -17 14 -34 14 -39 0 -6 59 -176 80 -229 4 -11 13 -33 18 -50 6 -16 56 -157
111 -312 56 -154 101 -287 101 -295 0 -8 4 -18 8 -24 5 -5 28 -65 51 -134 24
-69 46 -134 51 -145 11 -25 51 -137 55 -150 1 -5 5 -17 8 -25 6 -14 68 -188
152 -430 19 -52 52 -147 75 -210 23 -63 70 -196 105 -295 63 -179 134 -381
179 -505 13 -36 40 -110 59 -165 20 -55 71 -201 115 -325 44 -124 87 -245 96
-270 8 -25 31 -90 51 -144 19 -55 35 -101 35 -103 0 -2 425 -3 945 -3 520 0
945 2 945 4 0 6 -49 146 -60 171 -9 21 -32 84 -134 365 -35 96 -69 186 -75
200 -5 14 -37 100 -70 191 -33 92 -67 186 -77 210 -26 71 -50 136 -94 259 -23
63 -45 124 -50 135 -7 17 -312 847 -416 1135 -19 52 -53 145 -76 205 -22 61
-53 144 -68 185 -15 41 -31 84 -35 95 -4 11 -9 25 -10 30 -2 6 -15 42 -30 80
-15 39 -35 93 -45 120 -19 54 -58 160 -170 465 -40 107 -89 242 -110 300 -21
58 -52 143 -70 190 -17 47 -40 112 -52 145 -11 33 -26 74 -33 90 -8 17 -31 80
-53 140 -70 194 -163 449 -172 470 -5 11 -20 54 -35 95 -15 41 -33 91 -40 110
-8 19 -40 105 -70 190 -31 85 -72 196 -90 245 -44 117 -185 500 -290 790 -46
127 -104 284 -129 350 -25 66 -46 124 -46 128 0 5 -6 23 -14 40 -14 32 -163
436 -198 537 -10 30 -23 64 -28 75 -5 11 -37 97 -71 190 -73 203 -153 420
-180 493 -10 28 -28 76 -38 105 -11 28 -35 95 -54 147 -99 267 -141 381 -164
445 -13 39 -28 79 -33 90 -5 11 -36 97 -70 190 -75 208 -99 274 -110 300 -5
11 -32 85 -60 165 -28 80 -56 154 -61 165 -9 20 -133 357 -149 405 -9 27 -42
118 -145 395 -36 99 -94 254 -127 345 -33 91 -74 201 -90 245 -16 44 -52 141
-78 215 -42 114 -84 230 -154 420 -7 19 -25 69 -40 110 -15 41 -31 84 -36 95
-5 11 -30 79 -56 150 -26 72 -60 166 -76 210 -17 44 -39 105 -50 135 -11 30
-69 190 -130 355 -60 165 -126 343 -145 395 -47 130 -72 199 -88 240 -8 19
-48 130 -91 245 -94 260 -135 372 -217 595 -36 96 -75 204 -88 240 l-24 65
-929 0 -928 0 -13 -25z"/>
<path d="M4429 8573 c-5 -16 -21 -55 -34 -88 -13 -33 -109 -285 -215 -560
-105 -275 -203 -528 -216 -563 -14 -35 -41 -104 -60 -155 -19 -51 -38 -101
-43 -112 -27 -60 -88 -55 654 -55 l674 0 6 23 c4 12 13 36 20 52 7 17 20 53
30 80 10 28 28 77 40 110 13 33 41 110 63 170 22 61 109 297 192 525 84 228
168 457 186 508 l34 92 -660 0 -660 0 -11 -27z"/>
<path d="M7817 8067 c-104 -292 -192 -541 -197 -552 -21 -50 -160 -452 -160
-463 0 -9 585 -12 2785 -12 1599 0 2785 4 2785 9 0 5 -16 53 -36 107 -20 55
-40 110 -44 124 -14 43 -100 284 -109 305 -5 11 -21 56 -36 100 -15 44 -49
143 -77 220 -27 77 -60 169 -73 205 -12 36 -36 103 -53 150 -16 47 -50 141
-74 210 l-44 125 -2240 2 -2239 3 -188 -533z"/>
<path d="M14730 8596 c0 -2 30 -85 66 -183 65 -177 105 -286 182 -498 47 -128
73 -198 172 -465 39 -107 73 -199 74 -205 2 -5 8 -23 15 -40 6 -16 16 -43 22
-60 6 -16 15 -39 19 -50 5 -11 11 -28 14 -37 5 -17 46 -18 676 -18 l670 0 -21
53 c-38 96 -270 682 -278 702 -5 11 -14 34 -22 50 -7 17 -13 32 -13 35 -1 6
-43 110 -62 155 -7 17 -38 95 -69 175 -31 80 -79 199 -105 265 l-48 120 -646
3 c-355 1 -646 0 -646 -2z"/>
</g>
</svg>
